<?xml version="1.0" encoding="utf-8"?>
<!-- Generator: Adobe Illustrator 19.1.0, SVG Export Plug-In . SVG Version: 6.00 Build 0)  -->
<svg version="1.1" id="Layer_1" xmlns="http://www.w3.org/2000/svg" xmlns:xlink="http://www.w3.org/1999/xlink" x="0px" y="0px"
	 viewBox="0 0 22.9 22.8" enable-background="new 0 0 22.9 22.8" xml:space="preserve">
<g>
	<g id="XMLID_460_">
		<path id="XMLID_466_" fill="#B14DC2" d="M11,21.7C11,21.7,10.9,21.7,11,21.7c-0.4,0-0.7-0.1-1-0.3l-0.5-0.2
			c-0.2-0.1-0.3-0.4-0.2-0.6c0.1-0.2,0.4-0.3,0.6-0.2l0.5,0.2c0.2,0.1,0.4,0.2,0.7,0.2c0.2,0,0.4,0.2,0.4,0.5
			C11.4,21.6,11.2,21.7,11,21.7z M13,21.3c-0.2,0-0.3-0.1-0.4-0.3c-0.1-0.2,0-0.5,0.2-0.6l1.3-0.6c0.2-0.1,0.5,0,0.6,0.2
			c0.1,0.2,0,0.5-0.2,0.6l-1.3,0.6C13.1,21.3,13,21.3,13,21.3z M7.8,20.5c-0.1,0-0.1,0-0.2,0l-1.3-0.6c-0.2-0.1-0.3-0.4-0.2-0.6
			c0.1-0.2,0.4-0.3,0.6-0.2L8,19.6c0.2,0.1,0.3,0.4,0.2,0.6C8.1,20.4,8,20.5,7.8,20.5z M16.1,19.9c-0.2,0-0.3-0.1-0.4-0.3
			c-0.1-0.2,0-0.5,0.2-0.6l1.3-0.6c0.2-0.1,0.5,0,0.6,0.2c0.1,0.2,0,0.5-0.2,0.6l-1.3,0.6C16.2,19.9,16.2,19.9,16.1,19.9z M4.7,19.1
			c-0.1,0-0.1,0-0.2,0l-1.3-0.6C3,18.4,2.9,18.1,3,17.9c0.1-0.2,0.4-0.3,0.6-0.2l1.3,0.6c0.2,0.1,0.3,0.4,0.2,0.6
			C5,19,4.8,19.1,4.7,19.1z M19.2,18.5c-0.2,0-0.3-0.1-0.4-0.3c-0.1-0.2,0-0.5,0.2-0.6l0.8-0.4c0.1-0.1,0.2-0.1,0.3-0.2
			c0.2-0.1,0.5-0.1,0.6,0.1c0.1,0.2,0.1,0.5-0.1,0.6c-0.2,0.1-0.3,0.2-0.5,0.3l-0.8,0.4C19.3,18.5,19.3,18.5,19.2,18.5z M1.7,17.4
			c-0.1,0-0.3-0.1-0.4-0.2C1.1,16.8,1,16.3,1,15.8v-0.2c0-0.2,0.2-0.4,0.4-0.4s0.4,0.2,0.4,0.4v0.2c0,0.3,0.1,0.6,0.2,0.9
			c0.1,0.2,0.1,0.5-0.1,0.6C1.9,17.3,1.8,17.4,1.7,17.4z M21.2,16.1c-0.2,0-0.4-0.2-0.4-0.4v-1.4c0-0.2,0.2-0.4,0.4-0.4
			s0.4,0.2,0.4,0.4v1.4C21.7,15.9,21.5,16.1,21.2,16.1z M1.4,14C1.2,14,1,13.8,1,13.6v-1.4c0-0.2,0.2-0.4,0.4-0.4s0.4,0.2,0.4,0.4
			v1.4C1.9,13.8,1.7,14,1.4,14z M21.2,12.7c-0.2,0-0.4-0.2-0.4-0.4v-1.4c0-0.2,0.2-0.4,0.4-0.4s0.4,0.2,0.4,0.4v1.4
			C21.7,12.5,21.5,12.7,21.2,12.7z M1.4,10.6c-0.2,0-0.4-0.2-0.4-0.4V8.7c0-0.2,0.2-0.4,0.4-0.4s0.4,0.2,0.4,0.4v1.4
			C1.9,10.4,1.7,10.6,1.4,10.6z M21.2,9.2c-0.2,0-0.4-0.2-0.4-0.4V7.4C20.8,7.2,21,7,21.2,7s0.4,0.2,0.4,0.4v1.4
			C21.7,9,21.5,9.2,21.2,9.2z M1.4,7.2C1.2,7.2,1,7.1,1,6.8c0,0,0,0,0,0c0-0.1,0-0.9,0.6-1.5c0.2-0.2,0.4-0.2,0.6,0
			c0.2,0.2,0.2,0.4,0,0.6c-0.3,0.4-0.3,0.9-0.3,1C1.9,7,1.7,7.2,1.4,7.2C1.4,7.2,1.4,7.2,1.4,7.2z M20.7,5.9c-0.1,0-0.2,0-0.3-0.1
			c-0.2-0.3-0.5-0.4-0.5-0.4l0,0c-0.1,0-0.2-0.1-0.3-0.1l-0.2-0.1c-0.2-0.1-0.3-0.4-0.2-0.6c0.1-0.2,0.4-0.3,0.6-0.2l0.5,0.2
			c0.1,0,0.5,0.2,0.8,0.6c0.2,0.2,0.2,0.4,0,0.6C20.9,5.9,20.8,5.9,20.7,5.9z M3.7,5C3.5,5,3.4,4.9,3.3,4.8c-0.1-0.2,0-0.5,0.2-0.6
			l1.3-0.6c0.2-0.1,0.5,0,0.6,0.2c0.1,0.2,0,0.5-0.2,0.6L3.9,5C3.8,5,3.7,5,3.7,5z M17.6,4.4c-0.1,0-0.1,0-0.2,0l-1.3-0.6
			C16,3.7,15.9,3.4,16,3.2C16.1,3,16.3,2.9,16.5,3l1.3,0.6C18,3.7,18.1,3.9,18,4.1C17.9,4.3,17.8,4.4,17.6,4.4z M6.8,3.6
			c-0.2,0-0.3-0.1-0.4-0.3c-0.1-0.2,0-0.5,0.2-0.6l1.3-0.6c0.2-0.1,0.5,0,0.6,0.2c0.1,0.2,0,0.5-0.2,0.6L7,3.6
			C6.9,3.6,6.9,3.6,6.8,3.6z M14.5,3c-0.1,0-0.1,0-0.2,0l-1.3-0.6c-0.2-0.1-0.3-0.4-0.2-0.6c0.1-0.2,0.4-0.3,0.6-0.2l1.3,0.6
			c0.2,0.1,0.3,0.4,0.2,0.6C14.8,2.9,14.6,3,14.5,3z M10,2.2C9.8,2.2,9.6,2.1,9.6,2c-0.1-0.2,0-0.5,0.2-0.6l0.1-0.1
			c0,0,0.6-0.3,1.3-0.3c0.2,0,0.4,0.2,0.4,0.4c0,0.2-0.2,0.4-0.4,0.4c-0.6,0-1,0.2-1,0.2l-0.2,0.1C10.1,2.2,10,2.2,10,2.2z"/>
		<g id="XMLID_461_">
			<path id="XMLID_465_" fill="#9D1CB2" d="M18.5,8C18.5,8,18.5,8,18.5,8c0-0.4-0.3-0.8-0.6-1c0,0-0.1-0.1-0.1-0.1c0,0,0,0-0.1,0
				l0,0c0,0,0,0,0,0l-5.7-2.5c-0.4-0.2-1.1-0.2-1.5,0l0,0h0L4.9,6.8C4.5,7,4.2,7.5,4.1,7.9c0,0,0,0,0,0c0,0,0,0.1,0,0.1v6.7
				c0,0,0,0,0,0.1c0,0.4,0.3,0.8,0.6,1c0.1,0.1,0.1,0.1,0.2,0.2l5,2.2l0.7,0.3c0,0,0,0,0,0l0,0c0.4,0.2,1.1,0.2,1.5,0l0,0l5.7-2.5
				l0,0c0,0,0.1-0.1,0.1-0.1c0,0,0,0,0,0c0.3-0.2,0.5-0.6,0.6-1c0,0,0-0.1,0-0.1v0L18.5,8C18.6,8,18.5,8,18.5,8z"/>
			<path id="XMLID_464_" fill="#B14DC2" d="M4.9,7.5l5.7,2.5c0.4,0.2,0.8,0.7,0.8,1.2v0c0-0.5,0.3-1,0.8-1.2l5.7-2.5
				c0.4-0.2,0.7,0,0.7,0.5c0-0.4-0.3-0.8-0.6-1c0,0-0.1-0.1-0.1-0.1c0,0,0,0-0.1,0l0,0c0,0,0,0,0,0l-5.7-2.5c-0.4-0.2-1.1-0.2-1.5,0
				l0,0h0L4.9,6.8C4.5,7,4.2,7.5,4.1,7.9C4.2,7.5,4.5,7.3,4.9,7.5z"/>
			<path id="XMLID_463_" fill="#831CA8" d="M11.3,17.9v-6.4v0v-0.2c0-0.5-0.3-1-0.8-1.2L4.9,7.5c-0.4-0.2-0.7,0-0.7,0.4
				c0,0,0,0.1,0,0.1v6.7c0,0,0,0,0,0.1c0,0.4,0.3,0.8,0.6,1c0.1,0.1,0.1,0.1,0.2,0.2l5,2.2l0.7,0.3c0,0,0,0,0,0l0,0
				c0.4,0.2,1.1,0.2,1.5,0l0,0C11.7,18.7,11.3,18.4,11.3,17.9z"/>
			<path id="XMLID_462_" fill="#9D1CB2" d="M18.5,8c0-0.5-0.3-0.7-0.7-0.5L12.1,10c-0.4,0.2-0.8,0.7-0.8,1.2v0v0.2v0v6.4
				c0,0.5,0.3,0.7,0.8,0.6l5.7-2.5l0,0c0,0,0.1-0.1,0.1-0.1c0,0,0,0,0,0c0.3-0.2,0.5-0.6,0.6-1c0,0,0-0.1,0-0.1v0L18.5,8
				C18.6,8,18.5,8,18.5,8z"/>
		</g>
	</g>
</g>
</svg>
