<?xml version="1.0" encoding="utf-8"?>
<!-- Generator: Adobe Illustrator 19.1.0, SVG Export Plug-In . SVG Version: 6.00 Build 0)  -->
<svg version="1.1" id="Layer_1" xmlns="http://www.w3.org/2000/svg" xmlns:xlink="http://www.w3.org/1999/xlink" x="0px" y="0px"
	 viewBox="0 0 62 10.8" enable-background="new 0 0 62 10.8" xml:space="preserve">
<g>
	<g id="XMLID_435_">
		<path id="XMLID_457_" fill="#19191A" d="M1.6,9.7C1.7,9.2,1.8,8.6,1.8,8V2.4c0-0.1,0-0.2-0.2-0.2L1,1.9L1.1,1h2.4v3.2l0,0
			c0.5-0.4,1-0.6,1.7-0.6c1.2,0,2.2,0.8,2.2,3c0,2.4-1,3.3-2.4,3.3c-0.8,0-1.3-0.3-1.7-0.7l-0.1,0L3.3,9.7H1.6z M3.5,8.1
			c0.3,0.2,0.7,0.5,1.1,0.5c0.8,0,1.1-0.7,1.1-1.9C5.7,5.7,5.4,5,4.6,5C4.2,5,3.8,5.2,3.5,5.4V8.1z"/>
		<path id="XMLID_455_" fill="#19191A" d="M8.2,9.7V8.8l0.6-0.1c0.2,0,0.2-0.1,0.2-0.2V2.4c0-0.1,0-0.2-0.1-0.2L8.2,1.9L8.3,1h2.4
			v7.5c0,0.2,0,0.2,0.2,0.2l0.6,0.1v0.9H8.2z"/>
		<path id="XMLID_452_" fill="#19191A" d="M11.9,6.8c0-1.9,1-3.2,3.1-3.2c2.1,0,3,1.3,3,3c0,2-1,3.2-3.1,3.2
			C12.8,9.9,11.9,8.6,11.9,6.8z M16.2,6.7c0-1.4-0.4-1.8-1.2-1.8c-0.8,0-1.3,0.5-1.3,1.9c0,1.4,0.5,2,1.2,2
			C15.7,8.7,16.2,8.1,16.2,6.7z"/>
		<path id="XMLID_450_" fill="#19191A" d="M23.8,9.3c-0.5,0.3-1.4,0.6-2.2,0.6c-2.1,0-3-1.3-3-3.1c0-2.2,1.3-3.2,3.2-3.2
			c0.9,0,1.7,0.3,2.1,0.5v1.8l-1.2-0.1l-0.1-0.8c0-0.1,0-0.1-0.1-0.2c-0.1,0-0.4-0.1-0.6-0.1c-0.7,0-1.3,0.5-1.3,1.8
			c0,1.5,0.7,1.9,1.5,1.9c0.6,0,1.1-0.2,1.4-0.3L23.8,9.3z"/>
		<path id="XMLID_448_" fill="#19191A" d="M29,9.7l-1.5-2.9l-0.6,0.7v1c0,0.2,0,0.2,0.2,0.2l0.7,0.1v0.9h-3.4V8.8l0.6-0.1
			c0.2,0,0.2-0.1,0.2-0.2V2.4c0-0.1,0-0.2-0.1-0.2l-0.6-0.2L24.5,1h2.4v4.9L29,3.7h1.6v0.9L30,4.7c-0.2,0-0.2,0.1-0.3,0.2l-0.8,0.9
			l1.5,2.8c0.1,0.2,0.2,0.2,0.3,0.2l0.5,0.1v0.9H29z"/>
		<path id="XMLID_446_" fill="#19191A" d="M35.1,5.5L35,4.9c0-0.1,0-0.1-0.1-0.2c-0.2,0-0.4-0.1-0.7-0.1c-0.6,0-0.9,0.2-0.9,0.6
			c0,0.5,0.6,0.6,1.3,0.7c0.9,0.2,1.9,0.5,1.9,1.9c0,1.4-1.1,2-2.6,2c-1.1,0-2.1-0.3-2.3-0.4V7.8l1.2,0.1L33,8.5
			c0,0.1,0,0.2,0.1,0.2c0.1,0,0.5,0.1,0.9,0.1c0.6,0,1-0.2,1-0.6c0-0.5-0.5-0.6-1.1-0.7c-1-0.2-2.2-0.4-2.2-1.9c0-1.4,1.2-2,2.6-2
			c0.9,0,1.8,0.2,2.1,0.3v1.7L35.1,5.5z"/>
		<path id="XMLID_444_" fill="#19191A" d="M41.6,9.4c-0.5,0.2-1.2,0.5-1.9,0.5c-1.4,0-1.9-0.6-1.9-1.9V5c0-0.1,0-0.1-0.1-0.1H37v-1
			c1-0.1,1.4-0.6,1.5-1.9h1.1v1.6c0,0.1,0,0.1,0.1,0.1h1.6v1.2h-1.7v2.8c0,0.7,0.2,0.9,0.8,0.9c0.3,0,0.7-0.1,0.9-0.2L41.6,9.4z"/>
		<path id="XMLID_441_" fill="#19191A" d="M45.9,9.7l-0.1-0.6l-0.1,0c-0.4,0.4-1,0.8-1.9,0.8c-1.5,0-1.7-1-1.7-1.7
			c0-1.2,0.7-1.7,2.2-1.8l1.3-0.1V5.6c0-0.5-0.1-0.9-0.8-0.9c-0.6,0-0.8,0.1-0.8,0.8l-1.6-0.1c0-1.6,1.4-1.8,2.5-1.8
			c1.8,0,2.5,0.5,2.5,2.1v2.8c0,0.2,0,0.2,0.2,0.2l0.6,0.1v0.9H45.9z M45.6,7.2l-0.8,0.1c-0.7,0-0.9,0.2-0.9,0.7
			c0,0.5,0.3,0.6,0.7,0.6c0.4,0,0.8-0.2,1.1-0.4V7.2z"/>
		<path id="XMLID_439_" fill="#19191A" d="M53.6,9.3c-0.5,0.3-1.4,0.6-2.2,0.6c-2.1,0-3-1.3-3-3.1c0-2.2,1.3-3.2,3.2-3.2
			c0.9,0,1.7,0.3,2.1,0.5v1.8l-1.2-0.1l-0.1-0.8c0-0.1,0-0.1-0.1-0.2c-0.1,0-0.4-0.1-0.6-0.1c-0.7,0-1.3,0.5-1.3,1.8
			c0,1.5,0.7,1.9,1.5,1.9c0.6,0,1.1-0.2,1.4-0.3L53.6,9.3z"/>
		<path id="XMLID_436_" fill="#19191A" d="M58.8,9.7l-1.5-2.9l-0.6,0.7v1c0,0.2,0,0.2,0.2,0.2l0.7,0.1v0.9h-3.4V8.8l0.6-0.1
			c0.2,0,0.2-0.1,0.2-0.2V2.4c0-0.1,0-0.2-0.1-0.2l-0.6-0.2L54.3,1h2.4v4.9l2.1-2.2h1.6v0.9l-0.6,0.1c-0.2,0-0.2,0.1-0.3,0.2
			l-0.8,0.9l1.5,2.8c0.1,0.2,0.2,0.2,0.3,0.2L61,8.8v0.9H58.8z"/>
	</g>
</g>
</svg>
