<?xml version="1.0" encoding="utf-8"?>
<!-- Generator: Adobe Illustrator 19.1.0, SVG Export Plug-In . SVG Version: 6.00 Build 0)  -->
<svg version="1.1" id="Layer_1" xmlns="http://www.w3.org/2000/svg" xmlns:xlink="http://www.w3.org/1999/xlink" x="0px" y="0px"
	 viewBox="0 0 90 24.1" enable-background="new 0 0 90 24.1" xml:space="preserve">
<g>
	<g id="XMLID_510_">
		<path id="XMLID_516_" fill="#B14DC2" d="M11.6,23C11.5,23,11.5,23,11.6,23c-0.4,0-0.7-0.1-1-0.3L10,22.5c-0.2-0.1-0.3-0.4-0.2-0.6
			c0.1-0.2,0.4-0.3,0.6-0.2l0.5,0.2c0.2,0.1,0.5,0.2,0.7,0.2c0.3,0,0.4,0.3,0.4,0.5C12,22.8,11.8,23,11.6,23z M13.7,22.5
			c-0.2,0-0.3-0.1-0.4-0.3c-0.1-0.2,0-0.5,0.2-0.6l1.3-0.6c0.2-0.1,0.5,0,0.6,0.2c0.1,0.2,0,0.5-0.2,0.6l-1.3,0.6
			C13.8,22.5,13.7,22.5,13.7,22.5z M8.2,21.6c-0.1,0-0.1,0-0.2,0L6.7,21c-0.2-0.1-0.3-0.4-0.2-0.6c0.1-0.2,0.4-0.3,0.6-0.2l1.3,0.6
			c0.2,0.1,0.3,0.4,0.2,0.6C8.5,21.5,8.4,21.6,8.2,21.6z M17,21c-0.2,0-0.3-0.1-0.4-0.3c-0.1-0.2,0-0.5,0.2-0.6l1.3-0.6
			c0.2-0.1,0.5,0,0.6,0.2c0.1,0.2,0,0.5-0.2,0.6L17.2,21C17.1,21,17,21,17,21z M4.9,20.1c-0.1,0-0.1,0-0.2,0l-1.3-0.6
			c-0.2-0.1-0.3-0.4-0.2-0.6c0.1-0.2,0.4-0.3,0.6-0.2l1.3,0.6c0.2,0.1,0.3,0.4,0.2,0.6C5.2,20,5.1,20.1,4.9,20.1z M20.3,19.6
			c-0.2,0-0.3-0.1-0.4-0.3c-0.1-0.2,0-0.5,0.2-0.6l0.8-0.4c0.1-0.1,0.3-0.1,0.4-0.2c0.2-0.2,0.5-0.1,0.6,0.1
			c0.2,0.2,0.1,0.5-0.1,0.6c-0.2,0.1-0.4,0.2-0.6,0.3l-0.8,0.4C20.4,19.5,20.4,19.6,20.3,19.6z M1.8,18.3c-0.2,0-0.3-0.1-0.4-0.2
			C1.1,17.7,1,17.2,1,16.7v-0.2C1,16.2,1.2,16,1.5,16s0.5,0.2,0.5,0.5v0.2c0,0.3,0.1,0.7,0.3,0.9c0.1,0.2,0.1,0.5-0.2,0.6
			C2,18.3,1.9,18.3,1.8,18.3z M22.4,17c-0.3,0-0.5-0.2-0.5-0.5v-1.5c0-0.3,0.2-0.5,0.5-0.5s0.5,0.2,0.5,0.5v1.5
			C22.9,16.8,22.7,17,22.4,17z M1.5,14.8c-0.3,0-0.5-0.2-0.5-0.5v-1.5c0-0.3,0.2-0.5,0.5-0.5s0.5,0.2,0.5,0.5v1.5
			C1.9,14.5,1.7,14.8,1.5,14.8z M22.4,13.3c-0.3,0-0.5-0.2-0.5-0.5v-1.5c0-0.3,0.2-0.5,0.5-0.5s0.5,0.2,0.5,0.5v1.5
			C22.9,13.1,22.7,13.3,22.4,13.3z M1.5,11.1c-0.3,0-0.5-0.2-0.5-0.5V9.2c0-0.3,0.2-0.5,0.5-0.5s0.5,0.2,0.5,0.5v1.5
			C1.9,10.9,1.7,11.1,1.5,11.1z M22.4,9.7c-0.3,0-0.5-0.2-0.5-0.5V7.8c0-0.3,0.2-0.5,0.5-0.5s0.5,0.2,0.5,0.5v1.5
			C22.9,9.5,22.7,9.7,22.4,9.7z M1.5,7.6C1.2,7.6,1,7.4,1,7.2c0,0,0,0,0,0c0-0.2,0-1,0.6-1.6c0.2-0.2,0.5-0.2,0.6,0
			c0.2,0.2,0.2,0.5,0,0.6c-0.4,0.4-0.4,1-0.4,1C1.9,7.4,1.7,7.6,1.5,7.6C1.5,7.6,1.5,7.6,1.5,7.6z M21.8,6.2c-0.1,0-0.2,0-0.3-0.1
			C21.2,5.8,21,5.7,21,5.7l0,0c-0.1,0-0.2-0.1-0.4-0.2l-0.2-0.1c-0.2-0.1-0.3-0.4-0.2-0.6c0.1-0.2,0.4-0.3,0.6-0.2l0.5,0.2
			c0.1,0,0.5,0.2,0.9,0.6c0.2,0.2,0.2,0.5,0,0.6C22.1,6.2,21.9,6.2,21.8,6.2z M3.8,5.3C3.7,5.3,3.5,5.2,3.4,5
			c-0.1-0.2,0-0.5,0.2-0.6L5,3.8c0.2-0.1,0.5,0,0.6,0.2c0.1,0.2,0,0.5-0.2,0.6L4,5.2C4,5.2,3.9,5.3,3.8,5.3z M18.6,4.6
			c-0.1,0-0.1,0-0.2,0L17.1,4c-0.2-0.1-0.3-0.4-0.2-0.6C17,3.1,17.2,3,17.5,3.1l1.3,0.6C19,3.8,19.1,4.1,19,4.3
			C18.9,4.5,18.8,4.6,18.6,4.6z M7.2,3.8C7,3.8,6.8,3.7,6.7,3.5C6.6,3.3,6.7,3,7,2.9l1.3-0.6c0.2-0.1,0.5,0,0.6,0.2
			C9,2.8,8.9,3,8.7,3.1L7.4,3.7C7.3,3.8,7.2,3.8,7.2,3.8z M15.3,3.1c-0.1,0-0.1,0-0.2,0l-1.3-0.6c-0.2-0.1-0.3-0.4-0.2-0.6
			c0.1-0.2,0.4-0.3,0.6-0.2l1.3,0.6c0.2,0.1,0.3,0.4,0.2,0.6C15.6,3,15.5,3.1,15.3,3.1z M10.5,2.3c-0.2,0-0.3-0.1-0.4-0.3
			c-0.1-0.2,0-0.5,0.2-0.6l0.2-0.1c0,0,0.6-0.3,1.4-0.3c0.2,0,0.5,0.2,0.5,0.4c0,0.3-0.2,0.5-0.4,0.5c-0.6,0-1,0.2-1,0.2l-0.2,0.1
			C10.6,2.3,10.6,2.3,10.5,2.3z"/>
		<g id="XMLID_511_">
			<path id="XMLID_515_" fill="#9D1CB2" d="M19.6,8.4C19.6,8.4,19.6,8.4,19.6,8.4c0-0.4-0.3-0.8-0.6-1.1c0,0-0.1-0.1-0.1-0.1
				c0,0,0,0-0.1,0l0,0c0,0,0,0,0,0l-6-2.7c-0.4-0.2-1.1-0.2-1.6,0l0,0h0l-6,2.7C4.7,7.3,4.4,7.8,4.3,8.3c0,0,0,0,0,0
				c0,0,0,0.1,0,0.1v7.1c0,0,0,0,0,0.1c0,0.4,0.3,0.8,0.6,1.1C5,16.7,5,16.8,5.2,16.9l5.3,2.3l0.7,0.3c0,0,0,0,0,0l0,0
				c0.4,0.2,1.1,0.2,1.6,0l0,0l6-2.7l0,0c0,0,0.1-0.1,0.1-0.1c0,0,0,0,0,0c0.3-0.2,0.6-0.6,0.6-1c0,0,0-0.1,0-0.1v0L19.6,8.4
				C19.6,8.4,19.6,8.4,19.6,8.4z"/>
			<path id="XMLID_514_" fill="#B14DC2" d="M5.1,7.9l6,2.7c0.4,0.2,0.8,0.8,0.8,1.3v0c0-0.5,0.4-1.1,0.8-1.3l6-2.7
				c0.4-0.2,0.8,0.1,0.8,0.5c0-0.4-0.3-0.8-0.6-1.1c0,0-0.1-0.1-0.1-0.1c0,0,0,0-0.1,0l0,0c0,0,0,0,0,0l-6-2.7
				c-0.4-0.2-1.1-0.2-1.6,0l0,0h0l-6,2.7C4.7,7.3,4.4,7.8,4.3,8.3C4.4,7.9,4.7,7.7,5.1,7.9z"/>
			<path id="XMLID_513_" fill="#831CA8" d="M12,18.9v-6.8v0v-0.2c0-0.5-0.4-1.1-0.8-1.3l-6-2.7c-0.4-0.2-0.7,0-0.8,0.5
				c0,0,0,0.1,0,0.1v7.1c0,0,0,0,0,0.1c0,0.4,0.3,0.8,0.6,1.1C5,16.7,5,16.8,5.2,16.9l5.3,2.3l0.7,0.3c0,0,0,0,0,0l0,0
				c0.4,0.2,1.1,0.2,1.6,0l0,0C12.3,19.7,12,19.5,12,18.9z"/>
			<path id="XMLID_512_" fill="#9D1CB2" d="M19.6,8.4c0-0.5-0.4-0.7-0.8-0.5l-6,2.7c-0.4,0.2-0.8,0.8-0.8,1.3v0v0.2v0v6.8
				c0,0.5,0.4,0.8,0.8,0.6l6-2.7l0,0c0,0,0.1-0.1,0.1-0.1c0,0,0,0,0,0c0.3-0.2,0.6-0.6,0.6-1c0,0,0-0.1,0-0.1v0L19.6,8.4
				C19.6,8.4,19.6,8.4,19.6,8.4z"/>
		</g>
	</g>
	<g id="XMLID_486_">
		<path id="XMLID_507_" fill="#19191A" d="M31.8,16.3c0.1-0.5,0.2-1.1,0.2-1.6V9.3c0-0.1,0-0.2-0.1-0.2l-0.6-0.2l0.1-0.9h2.3V11l0,0
			c0.5-0.4,1-0.6,1.7-0.6c1.2,0,2.1,0.8,2.1,2.8c0,2.3-1,3.2-2.3,3.2c-0.7,0-1.3-0.3-1.6-0.7l-0.1,0l-0.1,0.6H31.8z M33.7,14.7
			c0.3,0.2,0.6,0.4,1,0.4c0.7,0,1.1-0.7,1.1-1.8c0-0.9-0.3-1.6-1-1.6c-0.4,0-0.8,0.2-1.1,0.4V14.7z"/>
		<path id="XMLID_505_" fill="#19191A" d="M38.1,16.3v-0.9l0.6-0.1c0.2,0,0.2-0.1,0.2-0.2V9.3c0-0.1,0-0.2-0.1-0.2l-0.6-0.2l0.1-0.9
			h2.3v7.2c0,0.2,0,0.2,0.2,0.2l0.5,0.1v0.9H38.1z"/>
		<path id="XMLID_502_" fill="#19191A" d="M41.7,13.4c0-1.8,1-3,3-3c2.1,0,2.9,1.2,2.9,2.9c0,1.9-1,3.1-3,3.1
			C42.6,16.4,41.7,15.2,41.7,13.4z M45.8,13.4c0-1.3-0.4-1.8-1.1-1.8c-0.7,0-1.2,0.5-1.2,1.8c0,1.3,0.4,1.9,1.2,1.9
			C45.4,15.3,45.8,14.8,45.8,13.4z"/>
		<path id="XMLID_500_" fill="#19191A" d="M53.2,15.9c-0.5,0.3-1.3,0.5-2.1,0.5c-2,0-2.9-1.3-2.9-2.9c0-2.1,1.3-3.1,3-3.1
			c0.9,0,1.6,0.2,2,0.5v1.7L52,12.6l-0.1-0.7c0-0.1,0-0.1-0.1-0.2c-0.1,0-0.3-0.1-0.6-0.1c-0.7,0-1.2,0.5-1.2,1.8
			c0,1.4,0.6,1.9,1.4,1.9c0.6,0,1.1-0.2,1.4-0.3L53.2,15.9z"/>
		<path id="XMLID_498_" fill="#19191A" d="M58.1,16.3l-1.4-2.8l-0.6,0.7v1c0,0.2,0,0.2,0.2,0.2l0.7,0.1v0.9h-3.3v-0.9l0.6-0.1
			c0.2,0,0.2-0.1,0.2-0.2V9.3c0-0.1,0-0.2-0.1-0.2l-0.6-0.2l0.1-0.9h2.3v4.8l2-2.1h1.5v0.9l-0.6,0.1c-0.1,0-0.2,0.1-0.3,0.2
			l-0.8,0.8l1.4,2.7c0.1,0.2,0.2,0.2,0.3,0.2l0.5,0.1v0.9H58.1z"/>
		<path id="XMLID_496_" fill="#19191A" d="M64.1,12.3L64,11.7c0-0.1,0-0.1-0.1-0.2c-0.1,0-0.4-0.1-0.7-0.1c-0.6,0-0.9,0.2-0.9,0.6
			c0,0.5,0.6,0.6,1.3,0.7c0.9,0.2,1.9,0.5,1.9,1.8c0,1.4-1.1,1.9-2.5,1.9c-1,0-2-0.3-2.2-0.4v-1.6l1.2,0.1l0.1,0.6
			c0,0.1,0,0.1,0.1,0.2c0.1,0,0.4,0.1,0.9,0.1c0.6,0,0.9-0.2,0.9-0.6c0-0.4-0.4-0.6-1-0.7c-0.9-0.2-2.2-0.4-2.2-1.8
			c0-1.4,1.2-1.9,2.5-1.9c0.9,0,1.7,0.2,2,0.3v1.6L64.1,12.3z"/>
		<path id="XMLID_494_" fill="#19191A" d="M70.4,16c-0.5,0.2-1.2,0.4-1.8,0.4c-1.3,0-1.8-0.5-1.8-1.8v-2.9c0-0.1,0-0.1-0.1-0.1h-0.8
			v-1c1-0.1,1.4-0.6,1.5-1.8h1.1v1.6c0,0.1,0,0.1,0.1,0.1h1.6v1.1h-1.7v2.7c0,0.7,0.2,0.9,0.8,0.9c0.3,0,0.6-0.1,0.9-0.2L70.4,16z"
			/>
		<path id="XMLID_491_" fill="#19191A" d="M74.5,16.3l-0.1-0.6l-0.1,0c-0.4,0.4-1,0.7-1.9,0.7c-1.4,0-1.6-1-1.6-1.6
			c0-1.1,0.7-1.6,2.1-1.7l1.3-0.1v-0.6c0-0.5-0.1-0.9-0.7-0.9c-0.5,0-0.8,0.1-0.8,0.7l-1.6-0.1c0-1.5,1.4-1.7,2.4-1.7
			c1.7,0,2.4,0.5,2.4,2v2.7c0,0.2,0,0.2,0.2,0.2l0.5,0.1v0.9H74.5z M74.2,13.9L73.4,14c-0.7,0-0.9,0.2-0.9,0.7
			c0,0.4,0.3,0.6,0.6,0.6c0.4,0,0.8-0.2,1-0.4V13.9z"/>
		<path id="XMLID_489_" fill="#19191A" d="M81.9,15.9c-0.5,0.3-1.3,0.5-2.1,0.5c-2,0-2.9-1.3-2.9-2.9c0-2.1,1.3-3.1,3-3.1
			c0.9,0,1.6,0.2,2,0.5v1.7l-1.2-0.1l-0.1-0.7c0-0.1,0-0.1-0.1-0.2c-0.1,0-0.3-0.1-0.6-0.1c-0.7,0-1.2,0.5-1.2,1.8
			c0,1.4,0.6,1.9,1.4,1.9c0.6,0,1.1-0.2,1.4-0.3L81.9,15.9z"/>
		<path id="XMLID_487_" fill="#19191A" d="M86.8,16.3l-1.4-2.8l-0.6,0.7v1c0,0.2,0,0.2,0.2,0.2l0.7,0.1v0.9h-3.3v-0.9l0.6-0.1
			c0.2,0,0.2-0.1,0.2-0.2V9.3c0-0.1,0-0.2-0.1-0.2l-0.6-0.2l0.1-0.9h2.3v4.8l2-2.1h1.5v0.9l-0.6,0.1c-0.1,0-0.2,0.1-0.3,0.2
			l-0.8,0.8l1.4,2.7c0.1,0.2,0.2,0.2,0.3,0.2l0.5,0.1v0.9H86.8z"/>
	</g>
</g>
</svg>
