<?xml version="1.0" encoding="utf-8"?>
<!-- Generator: Adobe Illustrator 19.1.0, SVG Export Plug-In . SVG Version: 6.00 Build 0)  -->
<svg version="1.1" id="Layer_1" xmlns="http://www.w3.org/2000/svg" xmlns:xlink="http://www.w3.org/1999/xlink" x="0px" y="0px"
	 viewBox="0 0 62 38.2" enable-background="new 0 0 62 38.2" xml:space="preserve">
<g>
	<g id="XMLID_460_">
		<path id="XMLID_466_" fill="#B14DC2" d="M30.6,21.7C30.6,21.7,30.6,21.7,30.6,21.7c-0.4,0-0.7-0.1-1-0.3l-0.5-0.2
			c-0.2-0.1-0.3-0.4-0.2-0.6c0.1-0.2,0.4-0.3,0.6-0.2l0.5,0.2c0.2,0.1,0.4,0.2,0.7,0.2c0.2,0,0.4,0.2,0.4,0.5
			C31,21.6,30.9,21.7,30.6,21.7z M32.6,21.3c-0.2,0-0.3-0.1-0.4-0.3c-0.1-0.2,0-0.5,0.2-0.6l1.3-0.6c0.2-0.1,0.5,0,0.6,0.2
			c0.1,0.2,0,0.5-0.2,0.6l-1.3,0.6C32.7,21.3,32.7,21.3,32.6,21.3z M27.5,20.5c-0.1,0-0.1,0-0.2,0L26,19.9c-0.2-0.1-0.3-0.4-0.2-0.6
			c0.1-0.2,0.4-0.3,0.6-0.2l1.3,0.6c0.2,0.1,0.3,0.4,0.2,0.6C27.8,20.4,27.6,20.5,27.5,20.5z M35.8,19.9c-0.2,0-0.3-0.1-0.4-0.3
			c-0.1-0.2,0-0.5,0.2-0.6l1.3-0.6c0.2-0.1,0.5,0,0.6,0.2c0.1,0.2,0,0.5-0.2,0.6l-1.3,0.6C35.9,19.9,35.8,19.9,35.8,19.9z
			 M24.3,19.1c-0.1,0-0.1,0-0.2,0l-1.3-0.6c-0.2-0.1-0.3-0.4-0.2-0.6c0.1-0.2,0.4-0.3,0.6-0.2l1.3,0.6c0.2,0.1,0.3,0.4,0.2,0.6
			C24.6,19,24.5,19.1,24.3,19.1z M38.9,18.5c-0.2,0-0.3-0.1-0.4-0.3c-0.1-0.2,0-0.5,0.2-0.6l0.8-0.4c0.1-0.1,0.2-0.1,0.3-0.2
			c0.2-0.1,0.5-0.1,0.6,0.1c0.1,0.2,0.1,0.5-0.1,0.6c-0.2,0.1-0.3,0.2-0.5,0.3l-0.8,0.4C39,18.5,38.9,18.5,38.9,18.5z M21.4,17.4
			c-0.1,0-0.3-0.1-0.4-0.2c-0.2-0.4-0.4-0.9-0.4-1.4v-0.2c0-0.2,0.2-0.4,0.4-0.4c0.2,0,0.4,0.2,0.4,0.4v0.2c0,0.3,0.1,0.6,0.2,0.9
			c0.1,0.2,0.1,0.5-0.1,0.6C21.6,17.3,21.5,17.4,21.4,17.4z M40.9,16.1c-0.2,0-0.4-0.2-0.4-0.4v-1.4c0-0.2,0.2-0.4,0.4-0.4
			c0.2,0,0.4,0.2,0.4,0.4v1.4C41.3,15.9,41.1,16.1,40.9,16.1z M21.1,14c-0.2,0-0.4-0.2-0.4-0.4v-1.4c0-0.2,0.2-0.4,0.4-0.4
			c0.2,0,0.4,0.2,0.4,0.4v1.4C21.5,13.8,21.3,14,21.1,14z M40.9,12.7c-0.2,0-0.4-0.2-0.4-0.4v-1.4c0-0.2,0.2-0.4,0.4-0.4
			c0.2,0,0.4,0.2,0.4,0.4v1.4C41.3,12.5,41.1,12.7,40.9,12.7z M21.1,10.6c-0.2,0-0.4-0.2-0.4-0.4V8.7c0-0.2,0.2-0.4,0.4-0.4
			c0.2,0,0.4,0.2,0.4,0.4v1.4C21.5,10.4,21.3,10.6,21.1,10.6z M40.9,9.2c-0.2,0-0.4-0.2-0.4-0.4V7.4c0-0.2,0.2-0.4,0.4-0.4
			c0.2,0,0.4,0.2,0.4,0.4v1.4C41.3,9,41.1,9.2,40.9,9.2z M21.1,7.2c-0.2,0-0.4-0.2-0.4-0.4c0,0,0,0,0,0c0-0.1,0-0.9,0.6-1.5
			c0.2-0.2,0.4-0.2,0.6,0c0.2,0.2,0.2,0.4,0,0.6c-0.3,0.4-0.3,0.9-0.3,1C21.5,7,21.3,7.2,21.1,7.2C21.1,7.2,21.1,7.2,21.1,7.2z
			 M40.3,5.9c-0.1,0-0.2,0-0.3-0.1c-0.2-0.3-0.5-0.4-0.5-0.4l0,0c-0.1,0-0.2-0.1-0.3-0.1L39,5.2c-0.2-0.1-0.3-0.4-0.2-0.6
			c0.1-0.2,0.4-0.3,0.6-0.2l0.5,0.2c0.1,0,0.5,0.2,0.8,0.6c0.2,0.2,0.2,0.4,0,0.6C40.5,5.9,40.4,5.9,40.3,5.9z M23.3,5
			C23.2,5,23,4.9,23,4.8c-0.1-0.2,0-0.5,0.2-0.6l1.3-0.6c0.2-0.1,0.5,0,0.6,0.2c0.1,0.2,0,0.5-0.2,0.6L23.5,5C23.5,5,23.4,5,23.3,5z
			 M37.3,4.4c-0.1,0-0.1,0-0.2,0l-1.3-0.6c-0.2-0.1-0.3-0.4-0.2-0.6C35.7,3,36,2.9,36.2,3l1.3,0.6c0.2,0.1,0.3,0.4,0.2,0.6
			C37.6,4.3,37.4,4.4,37.3,4.4z M26.5,3.6c-0.2,0-0.3-0.1-0.4-0.3c-0.1-0.2,0-0.5,0.2-0.6l1.3-0.6c0.2-0.1,0.5,0,0.6,0.2
			c0.1,0.2,0,0.5-0.2,0.6l-1.3,0.6C26.6,3.6,26.5,3.6,26.5,3.6z M34.1,3C34.1,3,34,3,34,3l-1.3-0.6c-0.2-0.1-0.3-0.4-0.2-0.6
			c0.1-0.2,0.4-0.3,0.6-0.2l1.3,0.6c0.2,0.1,0.3,0.4,0.2,0.6C34.5,2.9,34.3,3,34.1,3z M29.6,2.2c-0.2,0-0.3-0.1-0.4-0.3
			c-0.1-0.2,0-0.5,0.2-0.6l0.1-0.1c0,0,0.6-0.3,1.3-0.3c0.2,0,0.4,0.2,0.4,0.4c0,0.2-0.2,0.4-0.4,0.4c-0.6,0-1,0.2-1,0.2l-0.2,0.1
			C29.7,2.2,29.7,2.2,29.6,2.2z"/>
		<g id="XMLID_461_">
			<path id="XMLID_465_" fill="#9D1CB2" d="M38.2,8C38.2,8,38.2,8,38.2,8c0-0.4-0.3-0.8-0.6-1c0,0-0.1-0.1-0.1-0.1c0,0,0,0-0.1,0
				l0,0c0,0,0,0,0,0l-5.7-2.5c-0.4-0.2-1.1-0.2-1.5,0l0,0h0l-5.7,2.5c-0.4,0.2-0.7,0.6-0.7,1.1c0,0,0,0,0,0c0,0,0,0.1,0,0.1v6.7
				c0,0,0,0,0,0.1c0,0.4,0.3,0.8,0.6,1c0.1,0.1,0.1,0.1,0.2,0.2l5,2.2l0.7,0.3c0,0,0,0,0,0l0,0c0.4,0.2,1.1,0.2,1.5,0l0,0l5.7-2.5
				l0,0c0,0,0.1-0.1,0.1-0.1c0,0,0,0,0,0c0.3-0.2,0.5-0.6,0.6-1c0,0,0-0.1,0-0.1v0L38.2,8C38.2,8,38.2,8,38.2,8z"/>
			<path id="XMLID_464_" fill="#B14DC2" d="M24.5,7.5l5.7,2.5c0.4,0.2,0.8,0.7,0.8,1.2v0c0-0.5,0.3-1,0.8-1.2l5.7-2.5
				c0.4-0.2,0.7,0,0.7,0.5c0-0.4-0.3-0.8-0.6-1c0,0-0.1-0.1-0.1-0.1c0,0,0,0-0.1,0l0,0c0,0,0,0,0,0l-5.7-2.5c-0.4-0.2-1.1-0.2-1.5,0
				l0,0h0l-5.7,2.5c-0.4,0.2-0.7,0.6-0.7,1.1C23.9,7.5,24.2,7.3,24.5,7.5z"/>
			<path id="XMLID_463_" fill="#831CA8" d="M31,17.9v-6.4v0v-0.2c0-0.5-0.3-1-0.8-1.2l-5.7-2.5c-0.4-0.2-0.7,0-0.7,0.4
				c0,0,0,0.1,0,0.1v6.7c0,0,0,0,0,0.1c0,0.4,0.3,0.8,0.6,1c0.1,0.1,0.1,0.1,0.2,0.2l5,2.2l0.7,0.3c0,0,0,0,0,0l0,0
				c0.4,0.2,1.1,0.2,1.5,0l0,0C31.3,18.7,31,18.4,31,17.9z"/>
			<path id="XMLID_462_" fill="#9D1CB2" d="M38.2,8c0-0.5-0.3-0.7-0.7-0.5L31.8,10c-0.4,0.2-0.8,0.7-0.8,1.2v0v0.2v0v6.4
				c0,0.5,0.3,0.7,0.8,0.6l5.7-2.5l0,0c0,0,0.1-0.1,0.1-0.1c0,0,0,0,0,0c0.3-0.2,0.5-0.6,0.6-1c0,0,0-0.1,0-0.1v0L38.2,8
				C38.2,8,38.2,8,38.2,8z"/>
		</g>
	</g>
	<g id="XMLID_435_">
		<path id="XMLID_457_" fill="#19191A" d="M1.6,37.1c0.1-0.5,0.2-1.1,0.2-1.7v-5.6c0-0.1,0-0.2-0.2-0.2L1,29.3l0.1-0.9h2.4v3.2l0,0
			c0.5-0.4,1-0.6,1.7-0.6c1.2,0,2.2,0.8,2.2,3c0,2.4-1,3.3-2.4,3.3c-0.8,0-1.3-0.3-1.7-0.7l-0.1,0l-0.1,0.6H1.6z M3.5,35.4
			c0.3,0.2,0.7,0.5,1.1,0.5c0.8,0,1.1-0.7,1.1-1.9c0-0.9-0.3-1.7-1.1-1.7c-0.4,0-0.8,0.2-1.1,0.4V35.4z"/>
		<path id="XMLID_455_" fill="#19191A" d="M8.2,37.1v-0.9l0.6-0.1c0.2,0,0.2-0.1,0.2-0.2v-6.1c0-0.1,0-0.2-0.1-0.2l-0.6-0.2l0.1-0.9
			h2.4v7.5c0,0.2,0,0.2,0.2,0.2l0.6,0.1v0.9H8.2z"/>
		<path id="XMLID_452_" fill="#19191A" d="M11.9,34.1c0-1.9,1-3.2,3.1-3.2c2.1,0,3,1.3,3,3c0,2-1,3.2-3.1,3.2
			C12.8,37.3,11.9,36,11.9,34.1z M16.2,34.1c0-1.4-0.4-1.8-1.2-1.8c-0.8,0-1.3,0.5-1.3,1.9c0,1.4,0.5,2,1.2,2
			C15.7,36,16.2,35.5,16.2,34.1z"/>
		<path id="XMLID_450_" fill="#19191A" d="M23.8,36.7c-0.5,0.3-1.4,0.6-2.2,0.6c-2.1,0-3-1.3-3-3.1c0-2.2,1.3-3.2,3.2-3.2
			c0.9,0,1.7,0.3,2.1,0.5v1.8l-1.2-0.1l-0.1-0.8c0-0.1,0-0.1-0.1-0.2c-0.1,0-0.4-0.1-0.6-0.1c-0.7,0-1.3,0.5-1.3,1.8
			c0,1.5,0.7,1.9,1.5,1.9c0.6,0,1.1-0.2,1.4-0.3L23.8,36.7z"/>
		<path id="XMLID_448_" fill="#19191A" d="M29,37.1l-1.5-2.9l-0.6,0.7v1c0,0.2,0,0.2,0.2,0.2l0.7,0.1v0.9h-3.4v-0.9l0.6-0.1
			c0.2,0,0.2-0.1,0.2-0.2v-6.1c0-0.1,0-0.2-0.1-0.2l-0.6-0.2l0.1-0.9h2.4v4.9l2.1-2.2h1.6V32L30,32.1c-0.2,0-0.2,0.1-0.3,0.2
			l-0.8,0.9l1.5,2.8c0.1,0.2,0.2,0.2,0.3,0.2l0.5,0.1v0.9H29z"/>
		<path id="XMLID_446_" fill="#19191A" d="M35.1,32.9L35,32.3c0-0.1,0-0.1-0.1-0.2c-0.2,0-0.4-0.1-0.7-0.1c-0.6,0-0.9,0.2-0.9,0.6
			c0,0.5,0.6,0.6,1.3,0.7c0.9,0.2,1.9,0.5,1.9,1.9c0,1.4-1.1,2-2.6,2c-1.1,0-2.1-0.3-2.3-0.4v-1.7l1.2,0.1l0.1,0.7
			c0,0.1,0,0.2,0.1,0.2c0.1,0,0.5,0.1,0.9,0.1c0.6,0,1-0.2,1-0.6c0-0.5-0.5-0.6-1.1-0.7c-1-0.2-2.2-0.4-2.2-1.9c0-1.4,1.2-2,2.6-2
			c0.9,0,1.8,0.2,2.1,0.3V33L35.1,32.9z"/>
		<path id="XMLID_444_" fill="#19191A" d="M41.6,36.8c-0.5,0.2-1.2,0.5-1.9,0.5c-1.4,0-1.9-0.6-1.9-1.9v-3c0-0.1,0-0.1-0.1-0.1H37
			v-1c1-0.1,1.4-0.6,1.5-1.9h1.1V31c0,0.1,0,0.1,0.1,0.1h1.6v1.2h-1.7V35c0,0.7,0.2,0.9,0.8,0.9c0.3,0,0.7-0.1,0.9-0.2L41.6,36.8z"
			/>
		<path id="XMLID_441_" fill="#19191A" d="M45.9,37.1l-0.1-0.6l-0.1,0c-0.4,0.4-1,0.8-1.9,0.8c-1.5,0-1.7-1-1.7-1.7
			c0-1.2,0.7-1.7,2.2-1.8l1.3-0.1V33c0-0.5-0.1-0.9-0.8-0.9c-0.6,0-0.8,0.1-0.8,0.8l-1.6-0.1c0-1.6,1.4-1.8,2.5-1.8
			c1.8,0,2.5,0.5,2.5,2.1v2.8c0,0.2,0,0.2,0.2,0.2l0.6,0.1v0.9H45.9z M45.6,34.6l-0.8,0.1c-0.7,0-0.9,0.2-0.9,0.7
			c0,0.5,0.3,0.6,0.7,0.6c0.4,0,0.8-0.2,1.1-0.4V34.6z"/>
		<path id="XMLID_439_" fill="#19191A" d="M53.6,36.7c-0.5,0.3-1.4,0.6-2.2,0.6c-2.1,0-3-1.3-3-3.1c0-2.2,1.3-3.2,3.2-3.2
			c0.9,0,1.7,0.3,2.1,0.5v1.8l-1.2-0.1l-0.1-0.8c0-0.1,0-0.1-0.1-0.2c-0.1,0-0.4-0.1-0.6-0.1c-0.7,0-1.3,0.5-1.3,1.8
			c0,1.5,0.7,1.9,1.5,1.9c0.6,0,1.1-0.2,1.4-0.3L53.6,36.7z"/>
		<path id="XMLID_436_" fill="#19191A" d="M58.8,37.1l-1.5-2.9l-0.6,0.7v1c0,0.2,0,0.2,0.2,0.2l0.7,0.1v0.9h-3.4v-0.9l0.6-0.1
			c0.2,0,0.2-0.1,0.2-0.2v-6.1c0-0.1,0-0.2-0.1-0.2l-0.6-0.2l0.1-0.9h2.4v4.9l2.1-2.2h1.6V32l-0.6,0.1c-0.2,0-0.2,0.1-0.3,0.2
			l-0.8,0.9l1.5,2.8c0.1,0.2,0.2,0.2,0.3,0.2l0.5,0.1v0.9H58.8z"/>
	</g>
</g>
</svg>
